<svg xmlns="http://www.w3.org/2000/svg" width="580" height="536" viewBox="0 0 580 536" fill="none"><circle cx="292.368" cy="265.493" r="224.493" fill="#F5F8FF"></circle><rect x="186" y="49" width="223" height="436" rx="34" fill="white"></rect><mask id="mask0_2318_65399" style="mask-type:alpha" maskUnits="userSpaceOnUse" x="185" y="48" width="224" height="437"><path d="M350.155 48.4222H376.575C385.148 48.4222 393.237 51.7767 399.349 57.8627C405.465 63.9515 408.831 72.0051 408.831 80.5378V452.764C408.831 461.299 405.462 469.353 399.349 475.439C393.234 481.528 385.145 484.879 376.575 484.879H217.783C209.21 484.879 201.121 481.525 195.009 475.439C188.894 469.35 185.527 461.296 185.527 452.764V80.5407C185.527 72.0051 188.896 63.9515 195.009 57.8655C201.124 51.7767 209.213 48.4251 217.783 48.4251H244.204" fill="white"></path></mask><g mask="url(#mask0_2318_65399)"><path d="M257 51H337.795L336.994 62.3401C336.553 68.596 331.408 73.443 325.21 73.443H269.584C263.386 73.443 258.242 68.596 257.8 62.3401L257 51Z" fill="#091B36"></path><path opacity="0.3" d="M277 61.4747C277 60.6484 277.872 59.9785 278.949 59.9785H316.945C318.021 59.9785 318.894 60.6484 318.894 61.4747C318.894 62.301 318.021 62.9709 316.945 62.9709H278.949C277.872 62.9709 277 62.301 277 61.4747Z" fill="#FFFEFE"></path></g><path d="M374.767 44H219.591C197.815 44 180 61.8099 180 83.5807V448.815C180 470.583 197.815 488.396 219.591 488.396H374.767C396.541 488.396 414.358 470.586 414.358 448.815V83.5807C414.355 61.8099 396.541 44 374.767 44ZM348.948 52.0655H374.767C383.144 52.0655 391.049 55.357 397.022 61.3286C402.998 67.3031 406.288 75.2054 406.288 83.5779V448.813C406.288 457.188 402.995 465.09 397.022 471.062C391.046 477.036 383.142 480.325 374.767 480.325H219.591C211.214 480.325 203.309 477.034 197.336 471.062C191.36 465.088 188.07 457.185 188.07 448.813V83.5807C188.07 75.2054 191.363 67.3031 197.336 61.3314C203.312 55.357 211.217 52.0683 219.591 52.0683H245.41" fill="#091B36"></path><rect x="442" y="416" width="60.4359" height="60.4359" rx="30.2179" fill="#3D7FFC"></rect><path d="M464.49 441.447H460.123C459.64 441.447 459.176 441.639 458.835 441.981C458.493 442.323 458.301 442.786 458.301 443.27V454.851C458.303 455.333 458.496 455.794 458.838 456.134C459.179 456.474 459.641 456.665 460.123 456.665H464.49C464.974 456.665 465.437 456.473 465.779 456.131C466.121 455.789 466.313 455.326 466.313 454.842V443.27C466.313 442.786 466.121 442.323 465.779 441.981C465.437 441.639 464.974 441.447 464.49 441.447ZM463.924 455.581C463.718 455.581 463.516 455.52 463.344 455.405C463.172 455.29 463.038 455.127 462.959 454.936C462.88 454.745 462.86 454.535 462.9 454.333C462.94 454.13 463.04 453.944 463.186 453.798C463.332 453.652 463.518 453.553 463.721 453.512C463.923 453.472 464.133 453.493 464.324 453.572C464.515 453.651 464.678 453.785 464.793 453.956C464.907 454.128 464.969 454.33 464.969 454.537C464.968 454.814 464.857 455.079 464.661 455.275C464.465 455.471 464.199 455.581 463.921 455.581H463.924Z" fill="white"></path><path d="M483.421 449.441V449.525H483.763C484.138 449.527 484.504 449.639 484.815 449.847C485.126 450.055 485.369 450.351 485.513 450.697C485.657 451.042 485.695 451.423 485.624 451.791C485.552 452.158 485.374 452.497 485.11 452.763C484.753 453.121 484.269 453.324 483.763 453.329H483.421V453.425C483.831 453.455 484.215 453.639 484.495 453.94C484.775 454.241 484.931 454.637 484.931 455.048C484.931 455.46 484.775 455.856 484.495 456.157C484.215 456.458 483.831 456.642 483.421 456.671C483.383 456.676 483.345 456.676 483.308 456.671H470.765C470.051 456.672 469.367 456.39 468.862 455.886C468.356 455.383 468.072 454.699 468.07 453.986V443.741C468.07 442.139 470.142 438.799 471.466 437.313C471.763 436.99 471.989 436.609 472.132 436.194C472.274 435.779 472.329 435.339 472.293 434.902C472.18 433.487 472.273 431.475 473.708 431.342C475.949 431.135 477.789 435.021 476.728 437.942C476.289 439.128 475.93 440.002 475.644 440.608H483.851C484.449 440.612 485.023 440.847 485.453 441.263C485.883 441.679 486.136 442.245 486.159 442.843C486.182 443.441 485.974 444.025 485.578 444.474C485.182 444.922 484.628 445.201 484.032 445.252C484.579 445.267 485.097 445.494 485.479 445.886C485.86 446.278 486.073 446.803 486.073 447.349C486.068 447.903 485.846 448.433 485.453 448.824C485.06 449.215 484.53 449.435 483.976 449.438L483.421 449.441Z" fill="white"></path><rect x="40.6641" y="393.775" width="42.2529" height="42.2529" rx="21.1265" fill="#76A5FF"></rect><path d="M61.6651 425.308C57.0391 421.717 48.8156 417.356 52.1566 410.172C55.2338 404.015 61.6651 408.376 61.6651 410.686C61.6651 408.376 68.3455 404.015 71.43 410.172C74.7709 417.353 66.2896 421.714 61.6651 425.308Z" fill="white"></path><g opacity="0.8"><rect x="434" y="88" width="34.2301" height="34.2301" rx="17.1151" fill="#76A5FF"></rect><path d="M451.017 113.547C447.269 110.637 440.607 107.105 443.314 101.285C445.807 96.2966 451.017 99.8294 451.017 101.701C451.017 99.8294 456.429 96.2966 458.927 101.285C461.634 107.102 454.763 110.635 451.017 113.547Z" fill="white"></path></g><path d="M29 281.268C29 276.849 32.5817 273.268 37 273.268H146.34C150.758 273.268 154.34 276.849 154.34 281.268V296.603C154.34 301.021 150.758 304.603 146.34 304.603H37C32.5817 304.603 29 301.021 29 296.603V281.268Z" fill="#D2DCE4"></path><path d="M70.4961 289.357H123.427" stroke="white" stroke-width="7" stroke-linecap="round"></path><path d="M56.9464 286.545V284.159H53.9875L55.002 278.348H52.4376L51.3949 284.159H47.9005L48.915 278.348H46.3224L45.308 284.159H41.8418V286.545H44.8852L44.2089 290.504H40.8555V292.89H43.7862L42.7717 298.673H45.3643L46.3788 292.89H49.8732L48.8587 298.673H51.4512L52.4657 292.89H55.9883V290.504H52.8884L53.5648 286.545H56.9464ZM50.9722 286.545L50.2959 290.504H46.8015L47.4778 286.545H50.9722Z" fill="white"></path><path d="M459.586 179.039C459.586 174.621 463.168 171.039 467.586 171.039H536.858C541.276 171.039 544.858 174.621 544.858 179.039V184.357C544.858 188.775 541.276 192.357 536.858 192.357H467.586C463.168 192.357 459.586 188.775 459.586 184.357V179.039Z" fill="#D2DCE4"></path><path d="M487.82 181.986H523.831" stroke="white" stroke-width="4" stroke-linecap="round"></path><path d="M478.001 180.291V178.915H476.294L476.879 175.562H475.4L474.799 178.915H472.783L473.368 175.562H471.872L471.287 178.915H469.288V180.291H471.043L470.653 182.575H468.719V183.951H470.409L469.824 187.287H471.32L471.905 183.951H473.921L473.335 187.287H474.831L475.416 183.951H477.448V182.575H475.66L476.05 180.291H478.001ZM474.555 180.291L474.165 182.575H472.149L472.539 180.291H474.555Z" fill="white"></path><path d="M99.9414 55.2641C99.9414 51.1433 103.282 47.8027 107.403 47.8027H152.171C156.291 47.8027 159.632 51.1433 159.632 55.2641C159.632 59.3848 156.291 62.7254 152.171 62.7254H107.403C103.282 62.7254 99.9414 59.3848 99.9414 55.2641Z" fill="#D2DCE4"></path><path d="M119.707 55.4668H144.914" stroke="white" stroke-width="2" stroke-linecap="round"></path><path d="M112.83 54.2789V53.3154H111.635L112.044 50.9688H111.009L110.588 53.3154H109.177L109.587 50.9688H108.54L108.13 53.3154H106.73V54.2789H107.959L107.686 55.8774H106.332V56.8409H107.515L107.106 59.1762H108.153L108.562 56.8409H109.973L109.564 59.1762H110.611L111.02 56.8409H112.443V55.8774H111.191L111.464 54.2789H112.83ZM110.417 54.2789L110.144 55.8774H108.733L109.006 54.2789H110.417Z" fill="white"></path><rect x="51.3516" y="161.508" width="45.6484" height="45.6484" rx="22.8242" fill="#3D7FFC"></rect><path d="M68.3313 180.73H65.0329C64.6678 180.73 64.3176 180.875 64.0595 181.133C63.8013 181.392 63.6562 181.742 63.6562 182.107V190.854C63.6579 191.218 63.8037 191.567 64.0617 191.823C64.3197 192.08 64.6689 192.224 65.0329 192.224H68.3313C68.6964 192.224 69.0466 192.079 69.3047 191.821C69.5629 191.563 69.708 191.213 69.708 190.848V182.107C69.708 181.742 69.5629 181.392 69.3047 181.133C69.0466 180.875 68.6964 180.73 68.3313 180.73ZM67.9037 191.406C67.7477 191.406 67.5952 191.359 67.4655 191.273C67.3358 191.186 67.2347 191.063 67.175 190.919C67.1153 190.775 67.0997 190.616 67.1301 190.463C67.1605 190.31 67.2357 190.169 67.346 190.059C67.4563 189.949 67.5969 189.874 67.7499 189.843C67.9029 189.813 68.0615 189.828 68.2056 189.888C68.3497 189.948 68.4729 190.049 68.5596 190.179C68.6463 190.308 68.6926 190.461 68.6926 190.617C68.692 190.826 68.6084 191.027 68.4601 191.175C68.3119 191.323 68.111 191.406 67.9016 191.406H67.9037Z" fill="white"></path><path d="M82.6298 186.765V186.829H82.8884C83.1713 186.83 83.4476 186.915 83.6826 187.072C83.9177 187.229 84.1011 187.453 84.2097 187.714C84.3184 187.975 84.3475 188.262 84.2935 188.54C84.2395 188.818 84.1046 189.073 83.9059 189.275C83.6358 189.545 83.2705 189.698 82.8884 189.702H82.6298V189.775C82.9396 189.797 83.2294 189.936 83.441 190.164C83.6526 190.391 83.7702 190.69 83.7702 191.001C83.7702 191.311 83.6526 191.611 83.441 191.838C83.2294 192.065 82.9396 192.204 82.6298 192.227C82.6014 192.23 82.5726 192.23 82.5442 192.227H73.0702C72.5314 192.227 72.0144 192.014 71.6328 191.634C71.2512 191.253 71.0363 190.737 71.0352 190.198V182.46C71.0352 181.25 72.5999 178.727 73.6003 177.605C73.8243 177.361 73.9954 177.073 74.1028 176.76C74.2102 176.446 74.2517 176.114 74.2245 175.784C74.139 174.715 74.2096 173.195 75.2933 173.095C76.9864 172.939 78.3758 175.874 77.5742 178.08C77.2429 178.975 76.9714 179.636 76.7555 180.093H82.9547C83.4067 180.097 83.84 180.274 84.1646 180.588C84.4893 180.903 84.6802 181.33 84.6979 181.782C84.7155 182.234 84.5584 182.675 84.2592 183.014C83.96 183.352 83.5418 183.563 83.0915 183.601C83.5041 183.612 83.8961 183.784 84.184 184.08C84.4719 184.376 84.6329 184.773 84.6327 185.185C84.6293 185.604 84.4612 186.004 84.1647 186.299C83.8682 186.595 83.4672 186.761 83.0487 186.763L82.6298 186.765Z" fill="white"></path><g filter="url(#filter0_dd_2318_65399)"><path d="M358.585 108.057H137.499C135.59 108.057 133.76 108.817 132.41 110.168C131.06 111.519 130.302 113.351 130.301 115.262V197.435C130.302 199.346 131.06 201.178 132.41 202.529C133.76 203.88 135.59 204.639 137.499 204.64H224.736L240.918 214.747L251.066 221.086C252.779 222.156 254.818 220.3 253.914 218.494L246.975 204.64H358.585C360.493 204.639 362.324 203.88 363.674 202.529C365.024 201.178 365.782 199.346 365.783 197.435V115.262C365.782 113.351 365.024 111.519 363.674 110.168C362.324 108.817 360.493 108.057 358.585 108.057Z" fill="white"></path></g><path d="M309.372 144H223.989C222.338 144 221 145.338 221 146.989C221 148.64 222.338 149.978 223.989 149.978H309.372C311.023 149.978 312.362 148.64 312.362 146.989C312.362 145.338 311.023 144 309.372 144Z" fill="#EDF1F6"></path><path d="M335 126H225C223.343 126 222 127.343 222 129C222 130.657 223.343 132 225 132H335C336.657 132 338 130.657 338 129C338 127.343 336.657 126 335 126Z" fill="#9FC0FF"></path><path d="M275.007 161.879H224.641C222.867 161.879 221.43 163.317 221.43 165.09C221.43 166.863 222.867 168.301 224.641 168.301H275.007C276.781 168.301 278.218 166.863 278.218 165.09C278.218 163.317 276.781 161.879 275.007 161.879Z" fill="#EDF1F6"></path><path d="M343.846 161.879H284.992C283.219 161.879 281.781 163.317 281.781 165.09C281.781 166.863 283.219 168.301 284.992 168.301H343.846C345.62 168.301 347.057 166.863 347.057 165.09C347.057 163.317 345.62 161.879 343.846 161.879Z" fill="#EDF1F6"></path><path d="M343.847 180.15H312.715C310.942 180.15 309.504 181.588 309.504 183.361C309.504 185.135 310.942 186.572 312.715 186.572H343.847C345.62 186.572 347.058 185.135 347.058 183.361C347.058 181.588 345.62 180.15 343.847 180.15Z" fill="#EDF1F6"></path><path d="M301.189 180.15H225.07C223.297 180.15 221.859 181.588 221.859 183.361C221.859 185.135 223.297 186.572 225.07 186.572H301.189C302.963 186.572 304.4 185.135 304.4 183.361C304.4 181.588 302.963 180.15 301.189 180.15Z" fill="#EDF1F6"></path><mask id="mask1_2318_65399" style="mask-type:alpha" maskUnits="userSpaceOnUse" x="140" y="121" width="72" height="72"><circle cx="175.827" cy="157.35" r="35.4789" fill="#C4C4C4"></circle></mask><g mask="url(#mask1_2318_65399)"><path d="M174.922 194.098C194.947 194.098 211.181 177.868 211.181 157.846C211.181 137.824 194.947 121.594 174.922 121.594C154.897 121.594 138.664 137.824 138.664 157.846C138.664 177.868 154.897 194.098 174.922 194.098Z" fill="#5D5FEF"></path><path d="M161.991 183.06C165.279 183.06 167.944 179.204 167.944 174.446C167.944 169.689 165.279 165.832 161.991 165.832C158.704 165.832 156.039 169.689 156.039 174.446C156.039 179.204 158.704 183.06 161.991 183.06Z" fill="#FEB79C"></path><path d="M157.815 188.629L194.316 186.591C194.316 186.591 199.885 171.38 198.634 170.372C197.363 169.363 176.318 158.207 176.318 158.207L155.777 158.711L157.815 188.629Z" fill="#2C2D00"></path><path d="M176.565 224.116C190.282 224.116 201.403 214.018 201.403 201.562C201.403 189.106 190.282 179.008 176.565 179.008C162.847 179.008 151.727 189.106 151.727 201.562C151.727 214.018 162.847 224.116 176.565 224.116Z" fill="#9FC0FF"></path><path d="M175.32 186.352C172.354 186.352 169.918 184.489 169.838 182.17L169.494 171.51C169.415 169.15 171.825 167.163 174.844 167.122C177.889 167.08 180.405 168.943 180.458 171.303L180.802 181.963C180.882 184.323 178.472 186.31 175.453 186.352C175.426 186.352 175.373 186.352 175.32 186.352Z" fill="#FEB79C"></path><path d="M174.94 166.72C172.983 166.761 171.368 168.173 170.965 170.009L171.126 176.323C171.187 178.603 173.043 180.398 175.303 180.398C175.343 180.398 175.363 180.398 175.404 180.398C177.361 180.358 178.975 178.946 179.379 177.11L179.217 170.795C179.157 168.475 177.26 166.66 174.94 166.72Z" fill="#FAA887"></path><path d="M187.975 155.685C187.975 165.127 180.368 175.839 174.093 175.839C169.331 175.839 160.211 165.147 160.211 155.685C160.211 146.244 166.426 138.578 174.093 138.578C181.76 138.578 187.975 146.244 187.975 155.685Z" fill="#FEB79C"></path><path d="M167.616 141.986C166.325 142.127 164.932 143.095 163.56 144.528C161.462 147.513 160.211 151.407 160.211 155.684C160.211 160.868 162.955 166.416 166.224 170.39C164.731 167.304 164.045 164.197 165.921 160.445C167.616 157.035 170.098 149.41 170.098 149.41C170.098 149.41 172.761 141.421 167.616 141.986Z" fill="#FAA887"></path><path d="M174.099 138.578C169.297 138.578 165.08 141.584 162.578 146.143C163.849 148.847 168.006 155.807 177.711 157.784C185.459 159.357 180.838 166.599 180.717 172.49C184.733 168.576 187.981 161.859 187.981 155.685C187.981 146.244 181.767 138.578 174.099 138.578Z" fill="#FAA887"></path><path d="M163.65 143.52C163.65 143.52 167.12 153.789 179.247 156.25C188.569 158.146 180.013 168.233 182.858 174.305C184.977 178.824 189.698 177.735 186.087 182.294C182.475 186.853 185.32 202.246 196.155 198.837C206.99 195.407 208.705 177.352 204.529 169.948C200.352 162.524 194.823 160.063 194.259 153.224C193.694 146.385 188.548 135.552 177.915 134.785C171.176 134.301 161.935 133.635 163.65 143.52Z" fill="#2E2F06"></path><path d="M167.822 147.695C167.822 147.695 165.341 155.32 163.646 158.73C160.801 164.439 163.827 168.615 166.693 173.557C168.791 177.189 166.148 182.03 164.594 184.391C161.749 188.768 159.267 189.717 162.496 193.126C165.724 196.556 147.282 209.285 145.385 197.685C143.489 186.085 148.997 182.091 151.661 176.765C154.324 171.439 148.816 171.641 152.044 160.041C153.719 154.049 160.216 140.836 165.361 140.271C170.486 139.706 167.822 147.695 167.822 147.695Z" fill="#2E2F06"></path></g><g filter="url(#filter1_dd_2318_65399)"><path d="M279.595 226.922H500.68C502.589 226.923 504.42 227.682 505.77 229.033C507.119 230.384 507.878 232.216 507.879 234.127V316.3C507.878 318.211 507.119 320.043 505.77 321.394C504.42 322.745 502.589 323.505 500.68 323.505H376.355L350.026 339.951C348.312 341.021 346.273 339.166 347.178 337.359L354.117 323.505H279.595C277.686 323.505 275.856 322.745 274.506 321.394C273.156 320.043 272.397 318.211 272.397 316.3V234.127C272.397 232.216 273.156 230.384 274.506 229.033C275.856 227.682 277.686 226.923 279.595 226.922Z" fill="white"></path></g><path d="M418.577 297H368.211C366.438 297 365 298.438 365 300.211C365 301.984 366.438 303.422 368.211 303.422H418.577C420.351 303.422 421.788 301.984 421.788 300.211C421.788 298.438 420.351 297 418.577 297Z" fill="#EDF1F6"></path><path d="M488.42 297H429.567C427.793 297 426.355 298.438 426.355 300.211C426.355 301.984 427.793 303.422 429.567 303.422H488.421C490.194 303.422 491.632 301.984 491.632 300.211C491.632 298.438 490.194 297 488.42 297Z" fill="#EDF1F6"></path><path d="M487.991 279H456.859C455.086 279 453.648 280.438 453.648 282.211C453.648 283.984 455.086 285.422 456.859 285.422H487.991C489.765 285.422 491.202 283.984 491.202 282.211C491.202 280.438 489.765 279 487.991 279Z" fill="#EDF1F6"></path><path d="M444.33 279H368.211C366.438 279 365 280.438 365 282.211C365 283.984 366.438 285.422 368.211 285.422H444.33C446.103 285.422 447.541 283.984 447.541 282.211C447.541 280.438 446.103 279 444.33 279Z" fill="#EDF1F6"></path><path d="M426 243H368C366.343 243 365 244.343 365 246C365 247.657 366.343 249 368 249H426C427.657 249 429 247.657 429 246C429 244.343 427.657 243 426 243Z" fill="#9FC0FF"></path><mask id="mask2_2318_65399" style="mask-type:alpha" maskUnits="userSpaceOnUse" x="283" y="241" width="71" height="71"><ellipse cx="318.479" cy="276.44" rx="35.3772" ry="35.3772" fill="#C4C4C4"></ellipse></mask><g mask="url(#mask2_2318_65399)"><ellipse cx="319.9" cy="275.678" rx="36.8261" ry="36.8261" fill="#FECE4D"></ellipse><path d="M303.476 281.264C303.567 281.077 303.46 280.84 303.263 280.783C302.436 280.539 301.821 280.009 301.682 279.333C301.591 278.884 301.723 278.428 302.018 278.037C302.091 277.939 302.1 277.792 302.05 277.678C301.354 277.621 300.764 277.132 300.673 276.489C300.624 276.163 300.714 275.845 300.895 275.592C300.887 275.568 300.878 275.543 300.87 275.519C300.846 275.429 300.805 275.34 300.723 275.307C298.87 274.549 297.19 269.391 301.608 266.759C301.796 266.645 301.813 266.351 301.632 266.205C300.6 265.333 299.969 264.192 300.026 263.035C300.132 260.94 302.436 259.596 305.173 260.044C305.214 260.052 305.247 260.06 305.288 260.06C305.525 260.101 305.698 259.84 305.591 259.604C304.73 257.624 304.665 255.774 305.566 254.935C306.419 254.136 307.927 254.446 309.46 255.57C309.656 255.717 309.91 255.595 309.927 255.342C310.009 253.924 310.574 252.881 311.345 252.881C311.853 252.881 312.345 253.354 312.697 254.079C312.82 254.34 313.156 254.34 313.246 254.087C314.238 251.422 316.066 249.85 317.549 250.51C318.393 250.884 318.959 251.895 319.196 253.231C319.246 253.517 319.582 253.614 319.737 253.394C320.975 251.65 322.885 250.901 324.639 251.683C325.893 252.237 326.819 253.46 327.286 254.959C327.335 255.114 327.466 255.212 327.606 255.212C328.401 255.187 329.237 255.35 330.064 255.717C332.867 256.955 334.589 260.142 334.195 263.116C334.162 263.336 334.343 263.54 334.548 263.515C335.916 263.393 337.203 264.094 337.646 265.333C338.047 266.441 337.654 267.671 336.761 268.494C336.564 268.674 336.679 269.049 336.949 269.081C338.129 269.252 339.096 269.986 339.301 271.004C339.531 272.145 338.728 273.27 337.433 273.726C337.203 273.808 337.162 274.142 337.367 274.313C338.301 275.087 338.826 275.951 338.613 276.505C338.408 277.043 337.572 277.132 336.523 276.815C336.285 276.741 336.088 276.994 336.179 277.246C336.572 278.265 336.539 279.267 336.023 279.862C335.548 280.4 334.769 280.473 333.958 280.156C333.753 280.074 333.54 280.245 333.564 280.482C333.695 281.745 333.277 282.853 332.417 283.244C331.736 283.554 330.925 283.334 330.22 282.755C330.105 282.666 329.958 282.666 329.851 282.755C328.384 284.059 326.647 285.118 324.688 285.852C322.221 286.773 320.008 286.993 317.598 286.724C317.393 286.699 317.238 286.895 317.279 287.115C317.656 288.989 316.516 290.081 314.861 290.35C314.279 290.448 313.394 290.163 313.107 289.763C313.066 289.698 312.812 289.568 312.566 289.829C311.509 290.904 309.443 289.763 309.058 287.889C308.968 287.457 308.96 287.033 309.009 286.634C309.033 286.422 308.722 286.007 308.263 286.308C308.091 286.422 307.861 286.455 307.632 286.496C305.984 286.789 303.583 285.461 303.198 283.586C303.05 282.723 303.165 281.924 303.476 281.264Z" fill="#4F381D"></path><path d="M338.776 351.1C345.407 331.477 354.529 317.249 349.743 309.336C345.161 301.758 343.718 301.929 340.202 301.375C327.466 299.362 326.63 294.334 319.368 294.562C319.229 294.57 318.344 294.562 318.188 294.562C310.975 294.358 308.131 299.737 297.403 301.375C293.887 301.913 292.452 301.758 287.862 309.336C283.076 317.249 292.198 331.477 298.821 351.1C302.361 361.571 296.69 371.538 294.829 375.197C292.78 379.238 291.854 378.815 292.174 381.691C292.682 386.247 304.894 389.726 317.065 389.604C317.639 389.596 320.196 389.604 320.901 389.604C332.941 389.645 344.907 386.19 345.415 381.691C345.735 378.815 344.817 379.238 342.76 375.197C340.907 371.538 335.244 361.563 338.776 351.1Z" fill="#3D7FFC"></path><path d="M327.522 299.362C326.793 288.231 326.735 278.99 323.613 280.359C322.522 280.84 315.072 280.84 313.99 280.359C310.868 278.99 310.753 286.992 310.081 299.362C309.983 301.22 312.523 305.8 318.801 305.8C324.801 305.8 327.645 301.229 327.522 299.362Z" fill="#E79473"></path><path d="M328.708 268.681C327.611 263.876 323.357 261.125 318.699 261.229C314.042 261.125 309.787 263.876 308.69 268.681C307.955 271.897 307.739 289.261 312.376 294.659C313.299 295.734 316.464 298.942 318.671 298.942C321.163 298.942 324.134 295.774 325.015 294.659C328.784 289.887 328.507 283.799 328.972 279.396C329.499 274.351 329.437 271.897 328.708 268.681Z" fill="#D78361"></path><path d="M330.499 266.116C329.204 261.235 324.179 258.44 318.68 258.546C313.18 258.44 308.156 261.235 306.861 266.116C305.992 269.384 305.738 287.027 311.213 292.511C312.303 293.603 316.041 296.862 318.647 296.862C321.589 296.862 325.097 293.644 326.138 292.511C330.589 287.662 330.261 281.477 330.81 277.003C331.433 271.878 331.359 269.384 330.499 266.116Z" fill="#E79473"></path><path d="M304.975 264.021C304.852 263.597 304.762 263.141 304.729 262.676C304.532 259.946 306.073 257.616 308.179 257.469C309.253 257.396 310.269 257.909 311.024 258.789C311.737 258.398 312.63 258.129 313.622 258.056C314.695 257.982 315.703 258.145 316.498 258.496C316.859 256.499 318.179 254.983 319.859 254.869C321.859 254.723 323.637 256.605 323.973 259.139C324.719 258.691 325.662 258.39 326.711 258.316C329.153 258.145 331.235 259.262 331.522 260.851C332.841 261.568 333.833 263.181 333.972 265.129C334.054 266.278 333.833 267.354 333.382 268.226C334.251 268.413 334.923 269.081 334.981 269.937C335.054 270.988 334.169 271.909 333.005 271.99C332.85 271.999 332.702 271.999 332.563 271.982C332.481 272.406 332.341 272.846 332.137 273.262C331.137 275.315 329.03 276.35 327.424 275.584C326.145 274.965 325.58 273.376 325.916 271.713C325.055 272.121 324.113 272.267 323.17 272.072C321.629 271.754 320.441 270.613 319.834 269.081C319.506 269.342 319.113 269.464 318.72 269.391C318.277 269.309 317.916 268.983 317.711 268.535C317.072 268.951 316.326 269.22 315.507 269.277C314.007 269.383 312.63 268.763 311.712 267.728C311.72 267.777 311.728 267.834 311.728 267.883C311.917 270.499 310.032 272.765 307.516 272.944C304.999 273.123 302.811 271.151 302.623 268.535C302.483 266.604 303.459 264.884 304.975 264.021Z" fill="#4F381D"></path></g><path d="M401 261H368C366.343 261 365 262.343 365 264C365 265.657 366.343 267 368 267H401C402.657 267 404 265.657 404 264C404 262.343 402.657 261 401 261Z" fill="#EDF1F6"></path><path d="M471 261H413C411.343 261 410 262.343 410 264C410 265.657 411.343 267 413 267H471C472.657 267 474 265.657 474 264C474 262.343 472.657 261 471 261Z" fill="#EDF1F6"></path><g filter="url(#filter2_dd_2318_65399)"><path d="M358.577 351.789H137.491C135.583 351.79 133.752 352.549 132.402 353.9C131.052 355.251 130.294 357.083 130.293 358.994V441.168C130.294 443.078 131.052 444.91 132.402 446.261C133.752 447.612 135.583 448.372 137.491 448.372H224.729L240.91 458.48L251.058 464.818C252.771 465.889 254.81 464.033 253.906 462.226L246.967 448.372H358.577C360.486 448.372 362.316 447.612 363.666 446.261C365.016 444.91 365.774 443.078 365.775 441.168V358.994C365.774 357.083 365.016 355.251 363.666 353.9C362.316 352.549 360.486 351.79 358.577 351.789Z" fill="white"></path></g><path d="M309.794 367.461H224.411C222.76 367.461 221.422 368.799 221.422 370.45C221.422 372.101 222.76 373.439 224.411 373.439H309.794C311.445 373.439 312.783 372.101 312.783 370.45C312.783 368.799 311.445 367.461 309.794 367.461Z" fill="#9FC0FF"></path><path d="M275 387H224C222.343 387 221 388.343 221 390C221 391.657 222.343 393 224 393H275C276.657 393 278 391.657 278 390C278 388.343 276.657 387 275 387Z" fill="#EDF1F6"></path><path d="M321 387H288C286.343 387 285 388.343 285 390C285 391.657 286.343 393 288 393H321C322.657 393 324 391.657 324 390C324 388.343 322.657 387 321 387Z" fill="#EDF1F6"></path><path d="M274.999 405.613H224.633C222.86 405.613 221.422 407.051 221.422 408.824C221.422 410.598 222.86 412.035 224.633 412.035H274.999C276.773 412.035 278.21 410.598 278.21 408.824C278.21 407.051 276.773 405.613 274.999 405.613Z" fill="#EDF1F6"></path><path d="M343.838 405.613H284.984C283.211 405.613 281.773 407.051 281.773 408.824C281.773 410.598 283.211 412.035 284.984 412.035H343.838C345.612 412.035 347.05 410.598 347.05 408.824C347.05 407.051 345.612 405.613 343.838 405.613Z" fill="#EDF1F6"></path><path d="M343.839 423.883H312.707C310.934 423.883 309.496 425.32 309.496 427.094C309.496 428.867 310.934 430.305 312.707 430.305H343.839C345.612 430.305 347.05 428.867 347.05 427.094C347.05 425.32 345.612 423.883 343.839 423.883Z" fill="#EDF1F6"></path><path d="M301.181 423.883H225.063C223.289 423.883 221.852 425.32 221.852 427.094C221.852 428.867 223.289 430.305 225.063 430.305H301.181C302.955 430.305 304.392 428.867 304.392 427.094C304.392 425.32 302.955 423.883 301.181 423.883Z" fill="#EDF1F6"></path><mask id="mask3_2318_65399" style="mask-type:alpha" maskUnits="userSpaceOnUse" x="140" y="364" width="72" height="72"><circle cx="175.609" cy="400.382" r="35.4762" fill="#C4C4C4"></circle></mask><g mask="url(#mask3_2318_65399)"><circle cx="175.714" cy="400.484" r="34.5426" fill="#F178B6"></circle><path d="M199.998 425.994C199.86 421.408 196.214 419.272 197.419 414.955C198.517 411.006 199.706 409.846 199.284 406.804C198.923 404.13 196.744 402.84 195.877 398.192C195.217 394.65 197.473 392.199 195.24 386.975C189.822 374.246 182.992 372.502 173.775 373.047C169.27 373.316 168.556 375.237 167.374 375.698C166.123 376.182 166.001 375.828 165.08 376.059C163 376.589 158.986 380.991 158.779 390.801C158.687 395.249 155.725 393.69 153.952 397.201C152.072 400.919 155.771 405.29 150.99 406.174C145.08 407.265 143.569 412.097 143.776 414.54C144.405 421.854 141.105 421.569 139.187 424.012C134.843 429.528 138.941 437.526 140.292 440.076C149.202 456.939 180.72 462.832 196.683 435.352C197.527 433.9 200.136 430.811 199.998 425.994Z" fill="#352F60"></path><path d="M194.381 463.485C200.152 446.292 208.087 433.823 203.92 426.894C199.929 420.256 198.701 420.218 195.616 419.918C183.698 418.743 183.805 414.932 177.482 415.124C177.359 415.124 176.592 415.124 176.453 415.124C170.176 414.947 170.253 418.743 158.365 419.918C155.28 420.225 154.052 420.256 150.061 426.894C145.894 433.823 153.83 446.292 159.601 463.485C162.678 472.658 157.743 481.4 156.132 484.604C154.344 488.146 153.546 487.769 153.822 490.297C154.267 494.284 164.896 497.334 175.486 497.234C175.985 497.226 178.211 497.234 178.825 497.234C189.308 497.272 199.722 494.245 200.159 490.297C200.436 487.777 199.638 488.153 197.849 484.604C196.238 481.4 191.303 472.665 194.381 463.485Z" fill="#C6DBFF"></path><path d="M183.968 417.343C182.886 406.027 182.709 397.369 179.831 398.644C178.826 399.09 177.89 399.635 176.999 400.373C176.109 399.635 175.173 399.09 174.168 398.644C171.29 397.369 171.113 406.035 170.031 417.343C169.862 419.064 172.449 426.531 176.999 426.531C181.075 426.531 184.129 419.064 183.968 417.343Z" fill="#FFCDBA"></path><path d="M170.672 409.938C170.634 410.414 174.11 415.123 176.965 415.123C180.257 415.123 183.358 410.414 183.319 409.945C182.076 411.159 179.643 413.203 176.965 413.203C174.586 413.195 171.961 411.151 170.672 409.938Z" fill="#EBB7A2"></path><path d="M189.03 383.786C187.71 379.1 182.599 376.411 176.989 376.519C171.387 376.411 166.268 379.1 164.948 383.786C164.065 386.921 163.989 389.318 164.626 394.242C165.178 398.537 165.731 405.013 170.274 409.668C171.341 410.759 174.303 413.318 176.958 413.318C179.951 413.318 182.637 410.759 183.704 409.668C188.239 405.013 188.8 398.529 189.352 394.242C189.989 389.318 189.912 386.928 189.03 383.786Z" fill="#FFCDBA"></path><path d="M192.273 388.158C192.472 383.096 189.333 376.281 184.445 376.404C183.57 376.427 183.094 376.727 182.856 377.134C181.797 376.266 179.472 374.791 176.87 374.791C174.346 374.791 172.143 376.251 171.13 377.119C170.884 376.727 170.416 376.427 169.549 376.404C164.661 376.281 161.522 383.096 161.721 388.158C161.813 390.563 161.33 393.321 162.466 393.866C164.883 395.034 167.254 390.632 168.927 386.299C168.782 388.481 168.835 390.294 168.981 391.262C169.073 391.877 169.426 392.23 170.24 392.299C170.24 392.299 172.25 392.676 176.663 392.614C176.771 392.614 177.216 392.614 177.323 392.614C181.736 392.676 183.747 392.299 183.747 392.299C184.56 392.23 184.913 391.877 185.005 391.262C185.151 390.302 185.212 388.489 185.059 386.299C186.732 390.632 189.103 395.034 191.521 393.866C192.656 393.321 192.173 390.563 192.273 388.158Z" fill="#352F60"></path></g><rect x="520.348" y="323.465" width="31.5011" height="31.5011" rx="15.7505" fill="#76A5FF"></rect><ellipse cx="536.336" cy="335.218" rx="3.76132" ry="3.76132" fill="white"></ellipse><path d="M529.754 345.958C529.754 342.883 532.247 340.391 535.322 340.391H537.351C540.426 340.391 542.919 342.883 542.919 345.958C542.919 346.778 542.254 347.443 541.434 347.443H531.239C530.419 347.443 529.754 346.778 529.754 345.958Z" fill="white"></path><defs><filter id="filter0_dd_2318_65399" x="118.301" y="98.0566" width="259.48" height="137.344" filterUnits="userSpaceOnUse" color-interpolation-filters="sRGB"><feFlood flood-opacity="0" result="BackgroundImageFix"></feFlood><feColorMatrix in="SourceAlpha" type="matrix" values="0 0 0 0 0 0 0 0 0 0 0 0 0 0 0 0 0 0 127 0" result="hardAlpha"></feColorMatrix><feOffset dy="4"></feOffset><feGaussianBlur stdDeviation="5"></feGaussianBlur><feColorMatrix type="matrix" values="0 0 0 0 0.607843 0 0 0 0 0.67451 0 0 0 0 0.737255 0 0 0 0.35 0"></feColorMatrix><feBlend mode="normal" in2="BackgroundImageFix" result="effect1_dropShadow_2318_65399"></feBlend><feColorMatrix in="SourceAlpha" type="matrix" values="0 0 0 0 0 0 0 0 0 0 0 0 0 0 0 0 0 0 127 0" result="hardAlpha"></feColorMatrix><feOffset dy="2"></feOffset><feGaussianBlur stdDeviation="6"></feGaussianBlur><feColorMatrix type="matrix" values="0 0 0 0 0.89625 0 0 0 0 0.930414 0 0 0 0 0.995833 0 0 0 0.5 0"></feColorMatrix><feBlend mode="normal" in2="effect1_dropShadow_2318_65399" result="effect2_dropShadow_2318_65399"></feBlend><feBlend mode="normal" in="SourceGraphic" in2="effect2_dropShadow_2318_65399" result="shape"></feBlend></filter><filter id="filter1_dd_2318_65399" x="260.398" y="216.922" width="259.48" height="137.344" filterUnits="userSpaceOnUse" color-interpolation-filters="sRGB"><feFlood flood-opacity="0" result="BackgroundImageFix"></feFlood><feColorMatrix in="SourceAlpha" type="matrix" values="0 0 0 0 0 0 0 0 0 0 0 0 0 0 0 0 0 0 127 0" result="hardAlpha"></feColorMatrix><feOffset dy="4"></feOffset><feGaussianBlur stdDeviation="5"></feGaussianBlur><feColorMatrix type="matrix" values="0 0 0 0 0.607843 0 0 0 0 0.67451 0 0 0 0 0.737255 0 0 0 0.35 0"></feColorMatrix><feBlend mode="normal" in2="BackgroundImageFix" result="effect1_dropShadow_2318_65399"></feBlend><feColorMatrix in="SourceAlpha" type="matrix" values="0 0 0 0 0 0 0 0 0 0 0 0 0 0 0 0 0 0 127 0" result="hardAlpha"></feColorMatrix><feOffset dy="2"></feOffset><feGaussianBlur stdDeviation="6"></feGaussianBlur><feColorMatrix type="matrix" values="0 0 0 0 0.89625 0 0 0 0 0.930414 0 0 0 0 0.995833 0 0 0 0.5 0"></feColorMatrix><feBlend mode="normal" in2="effect1_dropShadow_2318_65399" result="effect2_dropShadow_2318_65399"></feBlend><feBlend mode="normal" in="SourceGraphic" in2="effect2_dropShadow_2318_65399" result="shape"></feBlend></filter><filter id="filter2_dd_2318_65399" x="118.293" y="341.789" width="259.48" height="137.344" filterUnits="userSpaceOnUse" color-interpolation-filters="sRGB"><feFlood flood-opacity="0" result="BackgroundImageFix"></feFlood><feColorMatrix in="SourceAlpha" type="matrix" values="0 0 0 0 0 0 0 0 0 0 0 0 0 0 0 0 0 0 127 0" result="hardAlpha"></feColorMatrix><feOffset dy="4"></feOffset><feGaussianBlur stdDeviation="5"></feGaussianBlur><feColorMatrix type="matrix" values="0 0 0 0 0.607843 0 0 0 0 0.67451 0 0 0 0 0.737255 0 0 0 0.35 0"></feColorMatrix><feBlend mode="normal" in2="BackgroundImageFix" result="effect1_dropShadow_2318_65399"></feBlend><feColorMatrix in="SourceAlpha" type="matrix" values="0 0 0 0 0 0 0 0 0 0 0 0 0 0 0 0 0 0 127 0" result="hardAlpha"></feColorMatrix><feOffset dy="2"></feOffset><feGaussianBlur stdDeviation="6"></feGaussianBlur><feColorMatrix type="matrix" values="0 0 0 0 0.89625 0 0 0 0 0.930414 0 0 0 0 0.995833 0 0 0 0.5 0"></feColorMatrix><feBlend mode="normal" in2="effect1_dropShadow_2318_65399" result="effect2_dropShadow_2318_65399"></feBlend><feBlend mode="normal" in="SourceGraphic" in2="effect2_dropShadow_2318_65399" result="shape"></feBlend></filter></defs></svg>