<svg width="128" height="30" viewBox="0 0 128 30" fill="none" xmlns="http://www.w3.org/2000/svg">
<path d="M45.2891 21.7502C49.7891 21.7502 52.5791 18.6902 52.7591 15.0414H49.4441C49.2154 17.0552 47.9441 18.8177 45.2891 18.8177C42.2891 18.8177 41.0291 16.7777 41.0291 13.9202V11.0214C41.0291 8.16391 42.3041 6.12391 45.2891 6.12391C47.9404 6.12391 49.2154 7.88266 49.4441 9.90016H52.7591C52.5791 6.25141 49.8004 3.19141 45.2891 3.19141C39.9079 3.19141 37.4854 6.63391 37.4854 11.1977V13.7477C37.4854 18.3152 39.9079 21.7502 45.2891 21.7502Z" fill="#1B1B20"/>
<path d="M54.6452 21.3972H58.1102V13.5447C58.1102 11.7597 59.104 10.841 60.6602 10.841C62.3402 10.841 63.0827 11.9397 63.0827 13.466V21.3972H66.5477V12.9072C66.5477 9.77223 64.7402 7.83348 61.8565 7.83348C60.1502 7.83348 58.7965 8.58348 58.1065 9.70848V2.78223H54.6377L54.6452 21.3972Z" fill="#1B1B20"/>
<path d="M73.1741 21.7043C74.7041 21.7043 76.3841 21.0668 76.9991 20.1743V21.3968H80.3366V12.933C80.3366 9.84676 78.0678 7.83301 74.7528 7.83301C71.8991 7.83301 69.8328 9.20926 69.0679 11.7855H72.2816C72.6566 11.0693 73.3766 10.5368 74.5766 10.5368C76.0016 10.5368 76.8716 11.4518 76.8716 12.678V14.4893C75.9084 13.7393 74.7172 13.3422 73.4966 13.3643C70.3091 13.3643 68.1416 14.6918 68.1416 17.5718C68.1491 20.148 70.1891 21.7043 73.1741 21.7043ZM74.0666 19.4093C72.6116 19.4093 71.5166 18.6968 71.5166 17.4705C71.5166 16.2443 72.5366 15.5955 74.1678 15.5955C75.7241 15.5955 76.8716 16.2855 76.8716 17.4705C76.8716 18.6555 75.5966 19.4093 74.0666 19.4093V19.4093Z" fill="#1B1B20"/>
<path d="M86.8164 21.3973H89.2351V18.5923H87.8326C86.9139 18.5923 86.5801 18.2361 86.5801 17.3698V10.9423H89.4114V8.1373H86.5801V4.51855H83.0889V8.1373H81.2139V10.9423H83.0889V17.6248C83.0701 19.9723 84.2664 21.3973 86.8164 21.3973Z" fill="#1B1B20"/>
<path d="M91.1104 21.3977H99.2479C102.818 21.3977 105.289 19.3577 105.289 16.3764C105.289 13.9539 103.812 12.5514 101.974 12.1689C102.693 11.7554 103.283 11.1513 103.68 10.4234C104.077 9.69552 104.265 8.87207 104.224 8.04395C104.224 5.36645 102.259 3.54395 99.1241 3.54395H91.1104V21.3977ZM94.5791 18.5927V13.7177H99.0416C100.725 13.7177 101.719 14.6589 101.719 16.1402C101.719 17.6214 100.778 18.5852 99.0679 18.5852L94.5791 18.5927ZM94.5791 10.9427V6.3527H98.3028C99.7803 6.3527 100.65 7.2227 100.65 8.5727C100.65 9.9227 99.8329 10.9427 98.3291 10.9427H94.5791Z" fill="#1B1B20"/>
<path d="M112.309 21.7051C116.288 21.7051 118.557 19.1026 118.557 15.7051V13.8301C118.557 10.4551 116.288 7.83008 112.309 7.83008C108.33 7.83008 106.062 10.4288 106.062 13.8301V15.7051C106.062 19.1026 108.33 21.7051 112.309 21.7051ZM115.189 15.9413C115.189 17.6776 114.274 18.9751 112.309 18.9751C110.344 18.9751 109.429 17.6776 109.429 15.9413V13.5976C109.429 11.8613 110.344 10.5601 112.309 10.5601C114.274 10.5601 115.189 11.8613 115.189 13.5976V15.9413Z" fill="#1B1B20"/>
<path d="M124.706 21.3973H127.11V18.5923H125.708C124.789 18.5923 124.459 18.2361 124.459 17.3698V10.9423H127.29V8.1373H124.459V4.51855H120.964V8.1373H119.089V10.9423H120.964V17.6248C120.956 19.9723 122.156 21.3973 124.706 21.3973Z" fill="#1B1B20"/>
<path d="M22.1106 11.7711V14.7073C22.1144 14.9064 22.061 15.1023 21.9566 15.2719C21.8522 15.4414 21.7013 15.5774 21.5219 15.6636C19.4781 16.6439 17.2514 17.1843 14.9856 17.2498C12.7217 17.1862 10.4962 16.6484 8.45311 15.6711C8.27207 15.5845 8.11986 15.4475 8.01476 15.2766C7.90966 15.1056 7.85614 14.9079 7.86061 14.7073V11.7711C7.86554 11.6365 7.90316 11.5053 7.97022 11.3885C8.03728 11.2718 8.13176 11.1732 8.24549 11.1012C8.35922 11.0292 8.48878 10.986 8.62296 10.9753C8.75714 10.9646 8.89191 10.9867 9.01561 11.0398C10.8997 11.8694 12.9277 12.3229 14.9856 12.3748C17.0443 12.3252 19.0734 11.8743 20.9594 11.0473C21.0823 10.9952 21.216 10.9736 21.3491 10.9843C21.4823 10.9949 21.6108 11.0377 21.7239 11.1087C21.8369 11.1798 21.9311 11.2771 21.9985 11.3925C22.0658 11.5078 22.1043 11.6377 22.1106 11.7711Z" fill="#0066FF"/>
<path d="M29.8129 18.6487C29.6606 20.4304 28.8397 22.0883 27.5153 23.2897C26.1908 24.491 24.4609 25.1467 22.6729 25.125H18.7354L11.2354 30V25.125L18.7354 20.25H22.6804C23.2386 20.2702 23.7836 20.0778 24.2054 19.7116C24.6272 19.3455 24.8944 18.833 24.9529 18.2775C25.1822 14.5304 25.1634 10.7722 24.8967 7.0275C24.8515 6.52799 24.6281 6.06141 24.2673 5.71302C23.9066 5.36462 23.4325 5.15768 22.9317 5.13C20.3742 4.9725 17.6817 4.875 14.9854 4.875C12.2892 4.875 9.59667 4.965 7.03917 5.145C6.53839 5.17268 6.06429 5.37962 5.7035 5.72802C5.34271 6.07641 5.11933 6.54299 5.07417 7.0425C4.80746 10.7872 4.78867 14.5454 5.01792 18.2925C5.07998 18.8453 5.34865 19.3541 5.77008 19.7172C6.19151 20.0802 6.73457 20.2705 7.29042 20.25H11.2354V25.125H7.29792C5.51193 25.1428 3.78521 24.4849 2.46386 23.2831C1.14252 22.0814 0.324197 20.4247 0.172922 18.645C-0.0750922 14.6482 -0.0563005 10.6393 0.229172 6.645C0.370916 4.98861 1.09993 3.4374 2.2847 2.27119C3.46947 1.10499 5.032 0.400567 6.69042 0.285C9.36042 0.09375 12.1729 0 14.9854 0C17.7979 0 20.6104 0.09375 23.2804 0.285C24.9439 0.397598 26.5119 1.10263 27.7 2.27223C28.8882 3.44183 29.6179 4.99854 29.7567 6.66C30.0416 10.6506 30.0604 14.6557 29.8129 18.6487V18.6487Z" fill="#0066FF"/>
</svg>
